<?xml version="1.0" encoding="utf-8"?>
<!-- Generator: Adobe Illustrator 16.0.0, SVG Export Plug-In . SVG Version: 6.00 Build 0)  -->
<!DOCTYPE svg PUBLIC "-//W3C//DTD SVG 1.1//EN" "http://www.w3.org/Graphics/SVG/1.1/DTD/svg11.dtd">
<svg version="1.1" id="Слой_1" xmlns="http://www.w3.org/2000/svg" xmlns:xlink="http://www.w3.org/1999/xlink" x="0px" y="0px"
	 width="512px" height="512px" viewBox="0 0 512 512" enable-background="new 0 0 512 512" xml:space="preserve">
<path fill="#FFFFFF" d="M487.872,399.922c7.605-48.352,7.984-102.266,1.063-151.832c-1.051-7.52-2.27-14.848-3.621-22.02
	c-0.035-0.211-0.07-0.414-0.117-0.621c-7.172-37.719-18.516-70.578-33.863-97.879c-0.129-0.23-0.266-0.449-0.41-0.664
	c-0.047-0.082-0.098-0.164-0.148-0.246c-18.836-30.68-43.777-56.547-74.137-76.883c-28.215-18.902-60.559-32.703-96.134-41.02
	C227.055-3.723,163.477-2.82,110.442,11.172c-5.348,1.41-8.535,6.887-7.125,12.234c1.41,5.344,6.887,8.531,12.23,7.121
	c11.883-3.133,24.328-5.563,37.07-7.301c66.977,13.348,126.843,39.895,173.196,76.836c35.379,28.195,60.363,61.238,70.664,92.828
	L260.09,150.949c-29.425-9.051-55.117-2.016-70.48,19.301c-19.035,26.406-16.836,68,5.227,98.902
	c46.781,65.523,99.546,97.891,265.383,161.547c-1.684,5.758-3.449,11.129-5.109,15.148c-3.969,7.418-34.184,39.359-55.348,45.293
	c-4.117,1.152-7.215,1.109-9.207-0.129c-0.266-0.168-0.539-0.32-0.82-0.461l-41.633-20.82l-0.004-0.004c0,0,0,0-0.004,0
	l-89.915-44.969c-0.008-0.004-0.012-0.008-0.02-0.012C233.844,412.586,175.879,372,123.149,319.84
	C79.836,277,28.27,214.656,27.598,160.238c4.34-19.75,10.992-36.488,20.109-50.621c2.254-3.496,2.113-8.02-0.355-11.367
	L24.778,67.637c8.523-4.676,17.316-9.156,27.434-14c4.988-2.387,7.094-8.363,4.707-13.352c-2.387-4.984-8.363-7.094-13.348-4.703
	C29.083,42.516,17.184,48.754,4.997,55.809c-2.465,1.426-4.203,3.836-4.785,6.621s0.055,5.691,1.742,7.98l25.297,34.305
	C18.547,119.738,12.129,137,7.852,156.824c-0.047,0.195-0.09,0.391-0.125,0.594c-2.297,10.789-3.977,22.324-5.02,34.699
	c-3.277,38.781,0.043,80.078,2.711,113.262c0.039,0.461,0.105,0.91,0.203,1.352c1.176,9.09,6.75,17.172,14.844,21.496
	c-1.691,7.414-1.328,15.188,1.145,22.613c3.559,10.676,11.031,19.313,21.043,24.32l253.515,126.793
	c6.021,3.008,12.423,4.438,18.739,4.438c12.191,0,24.023-5.34,32.09-14.832l33.41,16.711c4.164,2.488,8.863,3.73,14.043,3.73
	c3.465,0,7.148-0.555,11.031-1.672c28.082-8.07,62.582-45.336,67.719-55.895c0.082-0.168,0.16-0.34,0.23-0.512
	c2.91-6.934,5.953-16.953,8.512-26.684c0.008-0.031,0.016-0.063,0.023-0.094C484.903,415.949,487.192,405.16,487.872,399.922z
	 M109.071,334.074c12.57,12.43,25.457,24.23,38.164,35.199L37.29,314.285h-0.004c0,0,0-0.004-0.004-0.004l-7.203-3.602
	c-2.672-1.336-4.406-3.914-4.645-6.902c-0.027-0.367-0.082-0.734-0.148-1.094c-2.055-25.527-4.438-55.84-3.809-85.574
	C40.817,260.383,77.067,302.418,109.071,334.074z M305.122,484.047L51.606,357.254c-5.23-2.613-9.137-7.141-11.004-12.742
	c-0.742-2.219-1.109-4.492-1.137-6.758l288.563,144.32C321.575,486.809,312.759,487.863,305.122,484.047z M338.286,84.406
	c-33.73-26.883-74.134-48.516-118.997-63.934c19.512,1,38.691,3.586,56.66,7.781c48.427,11.32,115.106,39.398,157.763,108.871
	c0.051,0.082,0.098,0.164,0.141,0.246c0.109,0.191,0.223,0.379,0.344,0.563c11.934,21.379,21.277,46.559,27.941,75.145
	l-43.055-13.238C410.528,160.055,382.071,119.301,338.286,84.406z M211.129,257.52c-16.949-23.738-19.219-56.227-5.281-75.563
	c10.176-14.117,27.348-18.332,48.359-11.875l31.292,9.625l-19.848,134.91C243.45,297.621,226.84,279.527,211.129,257.52z
	 M283.98,327.563l20.876-141.902l161.824,49.762c0.883,5.055,1.695,10.195,2.426,15.434c6.664,47.715,6.297,99.598-1.027,146.09
	c-0.02,0.102-0.031,0.203-0.047,0.305c-0.367,2.914-1.367,8.004-2.742,13.953C377.657,377.512,322.837,352.98,283.98,327.563z"/>
<path fill="#FFFFFF" d="M73.196,43.543c1.16,0,2.344-0.203,3.492-0.633l0.227-0.086c5.168-1.961,7.77-7.738,5.809-12.906
	s-7.738-7.773-12.91-5.809c-0.004,0-0.109,0.039-0.133,0.051c-5.172,1.938-7.797,7.695-5.863,12.867
	C65.317,41.059,69.133,43.543,73.196,43.543z"/>
<path fill="#FFFFFF" d="M65.04,69.008c-3.281-4.449-9.547-5.395-13.996-2.117c-4.449,3.281-5.398,9.547-2.117,13.996l14.645,19.863
	c1.961,2.66,4.992,4.066,8.063,4.066c2.066,0,4.148-0.637,5.934-1.953c4.449-3.281,5.398-9.547,2.117-13.996L65.04,69.008z"/>
<path fill="#FFFFFF" d="M84.911,67.648l14.645,19.863c1.961,2.66,4.992,4.066,8.063,4.066c2.063,0,4.145-0.637,5.934-1.953
	c4.449-3.281,5.398-9.547,2.117-13.996L101.024,55.77c-3.281-4.449-9.547-5.395-13.996-2.117
	C82.579,56.934,81.629,63.199,84.911,67.648z"/>
<path fill="#FFFFFF" d="M328.88,446c1.434,0.715,2.953,1.051,4.453,1.051c3.676,0,7.219-2.035,8.965-5.551
	c2.465-4.949,0.449-10.957-4.5-13.422l-0.211-0.102c-4.949-2.465-10.957-0.449-13.422,4.5c-2.461,4.945-0.445,10.957,4.504,13.418
	L328.88,446z"/>
<path fill="#FFFFFF" d="M391.313,477.227c1.438,0.719,2.965,1.063,4.473,1.063c3.668,0,7.203-2.027,8.957-5.535
	c2.473-4.945,0.469-10.957-4.477-13.43l-36.734-18.371c-4.941-2.477-10.953-0.469-13.426,4.477s-0.469,10.957,4.473,13.43
	L391.313,477.227z"/>
</svg>
