<?xml version="1.0" encoding="utf-8"?>
<!-- Generator: Adobe Illustrator 16.0.0, SVG Export Plug-In . SVG Version: 6.00 Build 0)  -->
<!DOCTYPE svg PUBLIC "-//W3C//DTD SVG 1.1//EN" "http://www.w3.org/Graphics/SVG/1.1/DTD/svg11.dtd">
<svg version="1.1" id="Capa_1" xmlns="http://www.w3.org/2000/svg" xmlns:xlink="http://www.w3.org/1999/xlink" x="0px" y="0px"
	 width="595.275px" height="595.275px" viewBox="0.002 123.308 595.275 595.275"
	 enable-background="new 0.002 123.308 595.275 595.275" xml:space="preserve">
<g>
	<g>
		<path fill="#FFFFFF" d="M428.332,661.699c-3.506-5.381-10.709-6.903-16.09-3.397c-37.188,24.224-80.418,37.028-125.009,37.028
			c-126.465,0-229.354-102.887-229.354-229.353c0-45.924,13.521-90.23,39.103-128.135c3.593-5.323,2.189-12.549-3.133-16.142
			c-5.321-3.592-12.55-2.189-16.143,3.134c-28.181,41.76-43.08,90.568-43.08,141.144c0,67.474,26.276,130.908,73.987,178.62
			c47.71,47.712,111.146,73.986,178.62,73.986c49.11,0,96.726-14.107,137.702-40.797
			C430.316,674.283,431.837,667.08,428.332,661.699z"/>
	</g>
</g>
<g>
	<g>
		<path fill="#FFFFFF" d="M467.39,626.442c-4.586-4.496-11.945-4.423-16.443,0.162l-0.387,0.392
			c-4.521,4.558-4.492,11.919,0.064,16.443c2.268,2.25,5.229,3.373,8.189,3.373c2.99,0,5.98-1.146,8.254-3.438l0.482-0.488
			C472.046,638.301,471.976,630.939,467.39,626.442z"/>
	</g>
</g>
<g>
	<g>
		<path fill="#FFFFFF" d="M514.484,313.851c2.271,2.271,5.246,3.406,8.223,3.406c2.975,0,5.949-1.136,8.221-3.406l19.367-19.367
			c13.799-13.802,13.799-36.259,0-50.061l-41.506-41.507c-6.688-6.685-15.576-10.367-25.031-10.367s-18.344,3.682-25.029,10.367
			l-19.367,19.366c-2.18,2.18-3.406,5.138-3.406,8.221c0,3.083,1.227,6.041,3.406,8.221l5.498,5.498l-13.932,13.931
			c-29.541-20.519-62.949-34.356-98.346-40.736v-19.7h25.58c6.42,0,11.627-5.205,11.627-11.626v-51.16
			c0-6.421-5.207-11.627-11.627-11.627H216.311c-6.42,0-11.626,5.206-11.626,11.627v51.159c0,6.421,5.206,11.626,11.626,11.626
			h25.58v19.724c-33.278,6.034-65.033,18.707-93.547,37.51c-5.361,3.536-6.841,10.747-3.307,16.108
			c3.537,5.361,10.749,6.841,16.109,3.306c37.439-24.689,81.042-37.739,126.091-37.739c126.466,0,229.353,102.887,229.353,229.353
			c0,42.888-11.906,84.708-34.436,120.937c-3.391,5.452-1.721,12.621,3.734,16.014c1.912,1.188,4.031,1.755,6.129,1.755
			c3.885,0,7.682-1.946,9.885-5.489c24.824-39.918,37.943-85.983,37.943-133.216c0-52.102-15.682-101.787-44.787-143.692
			l13.932-13.931L514.484,313.851z M309.326,214.337c-7.305-0.629-14.671-0.965-22.092-0.965
			c-7.405-0.001-14.774,0.327-22.091,0.963v-16.617h44.183V214.337L309.326,214.337z M253.517,174.464h-25.58v-27.905h118.595
			v27.905h-25.578H253.517z M480.792,303.662c-4.723-5.61-9.691-11.057-14.939-16.304c-5.246-5.246-10.693-10.216-16.305-14.939
			l11.752-11.751l31.242,31.242L480.792,303.662z M469.523,236.004c-0.002-0.002-0.004-0.003-0.006-0.006l-5.492-5.491
			l11.146-11.145c2.295-2.294,5.344-3.557,8.586-3.557c3.244,0,6.293,1.263,8.588,3.558l41.506,41.506
			c4.734,4.734,4.734,12.439,0,17.175l-11.145,11.144l-5.48-5.481c-0.006-0.006-0.012-0.012-0.018-0.018L469.523,236.004z"/>
	</g>
</g>
<g>
	<g>
		<path fill="#FFFFFF" d="M287.235,301.182c-6.42,0-11.626,5.205-11.626,11.627v25.579c0,6.421,5.205,11.627,11.626,11.627
			c6.42,0,11.627-5.206,11.627-11.627v-25.579C298.863,306.387,293.655,301.182,287.235,301.182z"/>
	</g>
</g>
<g>
	<g>
		<path fill="#FFFFFF" d="M403.761,349.451c-2.164-2.163-5.162-3.407-8.221-3.407s-6.057,1.244-8.219,3.407s-3.408,5.162-3.408,8.22
			c0,3.069,1.244,6.058,3.408,8.22c2.162,2.163,5.16,3.406,8.219,3.406s6.057-1.244,8.221-3.406c2.162-2.163,3.406-5.162,3.406-8.22
			C407.167,354.613,405.923,351.613,403.761,349.451z"/>
	</g>
</g>
<g>
	<g>
		<path fill="#FFFFFF" d="M440.404,454.351h-25.58c-6.42,0-11.627,5.206-11.627,11.627s5.207,11.627,11.627,11.627h25.58
			c6.42,0,11.627-5.206,11.627-11.627S446.824,454.351,440.404,454.351z"/>
	</g>
</g>
<g>
	<g>
		<path fill="#FFFFFF" d="M403.761,566.062c-2.164-2.163-5.162-3.407-8.221-3.407s-6.057,1.244-8.219,3.407
			c-2.162,2.162-3.408,5.162-3.408,8.22c0,3.069,1.244,6.069,3.408,8.22c2.162,2.175,5.16,3.407,8.219,3.407
			s6.057-1.232,8.221-3.407c2.162-2.162,3.406-5.15,3.406-8.22C407.167,571.224,405.923,568.235,403.761,566.062z"/>
	</g>
</g>
<g>
	<g>
		<path fill="#FFFFFF" d="M287.235,581.94c-6.42,0-11.626,5.205-11.626,11.627v25.579c0,6.422,5.206,11.627,11.626,11.627
			c6.42,0,11.627-5.205,11.627-11.627v-25.579C298.863,587.147,293.655,581.94,287.235,581.94z"/>
	</g>
</g>
<g>
	<g>
		<path fill="#FFFFFF" d="M187.148,566.062c-2.164-2.163-5.162-3.407-8.22-3.407c-3.058,0-6.058,1.244-8.219,3.407
			c-2.163,2.162-3.408,5.162-3.408,8.22c0,3.069,1.244,6.058,3.408,8.22c2.161,2.175,5.161,3.407,8.219,3.407
			c3.058,0,6.057-1.232,8.22-3.407c2.163-2.162,3.407-5.15,3.407-8.22C190.556,571.224,189.312,568.224,187.148,566.062z"/>
	</g>
</g>
<g>
	<g>
		<path fill="#FFFFFF" d="M159.645,454.351h-25.58c-6.42,0-11.627,5.206-11.627,11.627s5.207,11.627,11.627,11.627h25.58
			c6.42,0,11.626-5.206,11.626-11.627C171.272,459.557,166.066,454.351,159.645,454.351z"/>
	</g>
</g>
<g>
	<g>
		<path fill="#FFFFFF" d="M187.148,349.451c-2.163-2.163-5.162-3.407-8.22-3.407c-3.058,0-6.058,1.244-8.219,3.407
			c-2.163,2.163-3.408,5.162-3.408,8.22c0,3.058,1.244,6.058,3.408,8.22c2.161,2.163,5.161,3.406,8.219,3.406
			c3.058,0,6.057-1.244,8.22-3.406s3.407-5.162,3.407-8.22C190.555,354.613,189.312,351.613,187.148,349.451z"/>
	</g>
</g>
<g>
	<g>
		<path fill="#FFFFFF" d="M378.013,375.199c-3.785-3.785-9.664-4.496-14.242-1.724l-95.976,58.103
			c-1.038,0.589-2.491,1.444-3.475,2.218c-10.046,7.175-16.617,18.923-16.617,32.182c0,21.8,17.734,39.532,39.532,39.532
			c13.208,0,24.917-6.518,32.098-16.5c0.859-1.064,1.66-2.46,2.313-3.61l58.092-95.957
			C382.509,384.864,381.796,378.984,378.013,375.199z M301.615,473.586l-0.961,1.586c-2.938,4.272-7.854,7.084-13.42,7.084
			c-8.974,0-16.277-7.302-16.277-16.277c0-5.566,2.813-10.485,7.087-13.423l1.577-0.954c2.273-1.209,4.862-1.9,7.612-1.9
			c8.976,0,16.278,7.302,16.278,16.278C303.511,468.727,302.822,471.314,301.615,473.586z M319.783,443.577
			c-2.738-3.966-6.18-7.407-10.146-10.146l25.713-15.566L319.783,443.577z"/>
	</g>
</g>
<g>
	<g>
		<path fill="#FFFFFF" d="M287.235,264.566c-111.061,0-201.415,90.352-201.415,201.412c0,111.061,90.354,201.414,201.415,201.414
			c111.061,0,201.415-90.354,201.415-201.414C488.65,354.918,398.296,264.566,287.235,264.566z M287.235,644.138
			c-98.237,0-178.161-79.922-178.161-178.159s79.922-178.159,178.161-178.159c98.237,0,178.161,79.922,178.161,178.159
			S385.472,644.138,287.235,644.138z"/>
	</g>
</g>
<g>
	<g>
		<path fill="#FFFFFF" d="M125.769,286.652c-2.164-2.163-5.162-3.407-8.22-3.407s-6.058,1.244-8.219,3.407
			c-2.163,2.162-3.408,5.162-3.408,8.22c0,3.069,1.244,6.058,3.408,8.22c2.161,2.163,5.161,3.407,8.219,3.407
			s6.058-1.244,8.22-3.407c2.163-2.162,3.407-5.162,3.407-8.22C129.176,291.815,127.933,288.816,125.769,286.652z"/>
	</g>
</g>
</svg>
