<?xml version="1.0" encoding="utf-8"?>
<!-- Generator: Adobe Illustrator 16.0.0, SVG Export Plug-In . SVG Version: 6.00 Build 0)  -->
<!DOCTYPE svg PUBLIC "-//W3C//DTD SVG 1.1//EN" "http://www.w3.org/Graphics/SVG/1.1/DTD/svg11.dtd">
<svg version="1.1" id="Capa_1" xmlns="http://www.w3.org/2000/svg" xmlns:xlink="http://www.w3.org/1999/xlink" x="0px" y="0px"
	 width="595.281px" height="595.275px" viewBox="0 123.308 595.281 595.275" enable-background="new 0 123.308 595.281 595.275"
	 xml:space="preserve">
<g>
	<g>
		<path fill="#FFFFFF" d="M586.945,399.882l-12.102-0.534v-21.707c0-4.816-3.902-8.72-8.721-8.72c-4.816,0-8.719,3.904-8.719,8.72
			v20.938l-24.477-1.079V302.04h24.477v35.866c0,4.816,3.902,8.72,8.719,8.72c4.818,0,8.721-3.904,8.721-8.72v-36.027
			c4.025-0.773,7.066-4.309,7.066-8.558c0-4.816-3.902-8.72-8.721-8.72h-59.682c-4.816,0-8.721,3.904-8.721,8.72
			c0,4.815,3.904,8.72,8.721,8.72h1.98v94.693l-48.92-2.156v-65.268h5.986c13.09,0,23.738-10.649,23.738-23.738v-13.471
			c0-13.089-10.648-23.738-23.738-23.738h-52.197c-13.09,0-23.738,10.649-23.738,23.738v13.471
			c0,13.089,10.648,23.738,23.738,23.738h3.4l-31.666,61.986l-21.576-0.951c-0.061-0.002-0.119-0.007-0.18-0.008l-13.447-0.593
			c-13.346-0.779-26.461-4.614-38.135-11.122v-1.957c0-7.114-3.105-13.839-8.521-18.451c-5.416-4.611-12.547-6.61-19.574-5.475
			l-9.894,1.596l-107.049-5.536v-19.49h5.985c13.089,0,23.738-10.649,23.738-23.738V292.1c0-13.089-10.648-23.738-23.738-23.738
			h-52.199c-13.089,0-23.737,10.649-23.737,23.738v13.471c0,13.089,10.648,23.738,23.737,23.738h5.987v17.408l-3.287-0.169
			c-2.399-0.129-4.723,0.738-6.455,2.384c-1.733,1.646-2.716,3.932-2.716,6.324v24.85l-0.661,0.107l-27.533-29.363V328.89
			c0-4.816-3.903-8.72-8.72-8.72H64.371v-0.491c0-4.815-3.903-8.72-8.72-8.72h-27C12.852,310.959,0,323.812,0,339.608v108.363
			c0,4.816,3.903,8.721,8.72,8.721s8.72-3.904,8.72-8.721V339.608c0-6.181,5.028-11.209,11.21-11.209h18.281v185.092H28.65
			c-6.181,0-11.21-5.028-11.21-11.209v-14.575c0-4.815-3.903-8.72-8.72-8.72S0,482.892,0,487.707v14.575
			c0,15.797,12.852,28.649,28.65,28.649h27.001c4.817,0,8.72-3.904,8.72-8.721v-0.49h19.746c4.817,0,8.72-3.904,8.72-8.72v-21.959
			l27.539-29.368l0.657,0.106v24.849c0,2.391,0.982,4.678,2.716,6.324c1.623,1.543,3.775,2.396,6.004,2.396
			c0.15,0,0.3-0.004,0.451-0.012l3.287-0.17v17.413h-5.986c-13.089,0-23.737,10.648-23.737,23.738v13.47
			c0,13.09,10.647,23.738,23.737,23.738h52.199c13.089,0,23.738-10.648,23.738-23.738v-13.47c0-13.09-10.648-23.738-23.738-23.738
			h-5.985v-19.494c0,0,106.314-5.532,106.677-5.598l10.266,1.657c1.291,0.208,2.586,0.311,3.873,0.311
			c5.714,0,11.28-2.022,15.7-5.785c5.416-4.612,8.521-11.339,8.521-18.452v-1.95c11.68-6.511,24.779-10.35,38.141-11.128
			l35.195-1.551l31.666,61.99h-3.4c-13.088,0-23.738,10.648-23.738,23.738v13.47c0,13.09,10.65,23.738,23.738,23.738h52.199
			c13.09,0,23.736-10.648,23.736-23.738v-13.47c0-13.09-10.646-23.738-23.736-23.738h-5.986v-65.272l48.918-2.156v94.697h-1.979
			c-4.818,0-8.721,3.904-8.721,8.721c0,4.815,3.902,8.72,8.721,8.72h59.68c4.818,0,8.721-3.904,8.721-8.72
			c0-4.25-3.041-7.787-7.066-8.559v-97.475l12.102-0.534c4.662-0.206,8.336-4.045,8.336-8.712v-24.698
			C595.281,403.927,591.607,400.088,586.945,399.882z M75.397,504.281H64.372V337.609h11.025V504.281z M198.802,367.56
			l-60.329,9.732v-12.853L198.802,367.56z M150.929,347.62v-18.311h5.347v18.587L150.929,347.62z M127.503,311.871
			c-3.472-0.001-6.297-2.827-6.297-6.298v-13.471c0-3.473,2.825-6.298,6.297-6.298h52.198c3.473,0,6.298,2.825,6.298,6.298v13.471
			c0,3.473-2.825,6.298-6.298,6.298H127.503z M92.836,376.343l6.769,7.219l-6.769,1.092V376.343z M92.837,465.546v-8.315
			l6.772,1.093L92.837,465.546z M179.703,530.02c3.473,0.001,6.298,2.826,6.298,6.298v13.471c0,3.473-2.825,6.299-6.298,6.299
			h-52.199c-3.472,0-6.297-2.826-6.297-6.299v-13.471c0-3.473,2.825-6.298,6.297-6.298H179.703z M150.929,512.581v-18.315
			l5.347-0.276v18.592H150.929z M301.316,392.683h-57.139c-15.582,0-28.26,12.677-28.26,28.258c0,15.582,12.676,28.26,28.26,28.26
			h57.139v16.018c0,2.732-1.498,4.415-2.391,5.176c-0.892,0.76-2.789,1.971-5.489,1.534l-105.563-17.03
			c-4.762-0.771-9.23,2.466-9.998,7.22c-0.767,4.754,2.465,9.23,7.22,9.998l13.704,2.211l-60.33,3.121v-12.854l3.75,0.604
			c0.47,0.075,0.938,0.113,1.399,0.113c4.204,0,7.907-3.049,8.599-7.332c0.767-4.754-2.465-9.23-7.22-9.998l-52.163-8.415v-37.248
			l200.6-32.363c2.694-0.437,4.596,0.774,5.489,1.535c0.891,0.761,2.391,2.443,2.391,5.174V392.683L301.316,392.683z
			 M301.316,410.124v21.639h-57.139c-5.966,0-10.82-4.854-10.82-10.82c0-5.966,4.854-10.819,10.82-10.819H301.316z M356.064,434.722
			c-0.039,0.001-0.076,0.003-0.117,0.006c-12.84,0.74-25.473,3.845-37.191,9.063v-3.309v-39.078v-3.302
			c11.719,5.218,24.367,8.317,37.191,9.056c0.039,0.002,0.078,0.005,0.117,0.006l6.641,0.293l4.586,26.77L356.064,434.722z
			 M420.357,311.871c-3.475-0.001-6.299-2.827-6.299-6.298v-13.471c0-3.473,2.826-6.298,6.299-6.298h52.197
			c3.473,0,6.297,2.825,6.297,6.298v13.471c0,3.473-2.824,6.298-6.297,6.298H420.357z M449.128,329.311v64.499l-5.346-0.236v-64.263
			H449.128z M426.343,362.582v30.222l-15.1-0.665L426.343,362.582z M411.242,449.746l15.102-0.666v30.229L411.242,449.746z
			 M472.554,530.02c3.473,0.001,6.297,2.826,6.297,6.298v13.471c0,3.473-2.824,6.299-6.297,6.299h-52.197
			c-3.473,0-6.299-2.826-6.299-6.299v-13.471c0-3.473,2.826-6.298,6.299-6.298H472.554z M443.783,512.581v-64.27l5.346-0.235v64.505
			H443.783z M384.851,433.453l-4.318-25.21l152.9,6.737l2.031,11.835L384.851,433.453z M557.404,539.85h-24.477v-95.466
			l24.477-1.078V539.85z M577.841,424.948L577.841,424.948l-24.814,1.093l-1.764-10.274l26.578,1.171V424.948z"/>
	</g>
</g>
<g>
	<g>
		<path fill="#FFFFFF" d="M194.721,399.778c-4.817,0-8.72,3.904-8.72,8.72v24.895c0,4.815,3.903,8.72,8.72,8.72
			s8.72-3.904,8.72-8.72v-24.895C203.44,403.682,199.536,399.778,194.721,399.778z"/>
	</g>
</g>
</svg>
