<?xml version="1.0" encoding="utf-8"?>
<!-- Generator: Adobe Illustrator 16.0.0, SVG Export Plug-In . SVG Version: 6.00 Build 0)  -->
<!DOCTYPE svg PUBLIC "-//W3C//DTD SVG 1.1//EN" "http://www.w3.org/Graphics/SVG/1.1/DTD/svg11.dtd">
<svg version="1.1" id="Capa_1" xmlns="http://www.w3.org/2000/svg" xmlns:xlink="http://www.w3.org/1999/xlink" x="0px" y="0px"
	 width="595.281px" height="595.275px" viewBox="0 123.308 595.281 595.275" enable-background="new 0 123.308 595.281 595.275"
	 xml:space="preserve">
<g>
	<g>
		<path fill="#FFFFFF" d="M586.56,558.719c-4.816,0-8.719,3.903-8.719,8.72V593.6H17.44V379.865c0-4.817-3.904-8.72-8.72-8.72
			c-4.815,0-8.72,3.903-8.72,8.72v222.455c0,4.817,3.904,8.72,8.72,8.72h577.84c4.816,0,8.721-3.902,8.721-8.72v-34.881
			C595.281,562.622,591.376,558.719,586.56,558.719z"/>
	</g>
</g>
<g>
	<g>
		<path fill="#FFFFFF" d="M551.681,335.49H280.693c-4.816,0-8.72,3.903-8.72,8.72v223.229c0,4.817,3.904,8.721,8.72,8.721h270.988
			c4.816,0,8.719-3.903,8.719-8.721V344.21C560.4,339.393,556.498,335.49,551.681,335.49z M542.96,558.72H289.413V352.93H542.96
			V558.72z"/>
	</g>
</g>
<g>
	<g>
		<path fill="#FFFFFF" d="M586.56,230.851h-37.205c-4.816,0-8.719,3.903-8.719,8.72s3.902,8.72,8.719,8.72h28.486v52.32H122.079
			v-52.32h388.473c4.818,0,8.721-3.903,8.721-8.72s-3.902-8.72-8.721-8.72H113.359H8.72c-4.815,0-8.72,3.903-8.72,8.72v104.64
			c0,4.817,3.904,8.72,8.72,8.72c4.816,0,8.72-3.903,8.72-8.72V318.05h560.401v210.731c0,4.817,3.902,8.72,8.719,8.72
			s8.721-3.902,8.721-8.72v-289.21C595.281,234.754,591.376,230.851,586.56,230.851z M104.639,300.61H17.44v-52.32h87.199V300.61z"
			/>
	</g>
</g>
<g>
	<g>
		<path fill="#FFFFFF" d="M239.151,336.501H43.825c-4.816,0-8.72,3.903-8.72,8.72v222.218c0,4.817,3.904,8.721,8.72,8.721h195.326
			c4.816,0,8.72-3.903,8.72-8.721V345.221C247.872,340.404,243.967,336.501,239.151,336.501z M190.917,558.72H92.061v-35.656
			c0-27.254,22.173-49.428,49.428-49.428s49.428,22.173,49.428,49.428V558.72z M117.191,431.899c0-13.396,10.9-24.296,24.296-24.296
			c13.396,0,24.296,10.9,24.296,24.296c0,13.396-10.9,24.296-24.296,24.296C128.091,456.195,117.191,445.296,117.191,431.899z
			 M230.432,558.72h-22.075v-35.656c0-26.748-15.794-49.866-38.539-60.551c8.237-7.63,13.406-18.527,13.406-30.613
			c0-23.013-18.723-41.736-41.736-41.736c-23.012,0-41.736,18.724-41.736,41.736c0,12.087,5.169,22.984,13.407,30.613
			c-22.745,10.685-38.539,33.803-38.539,60.551v35.656H52.545V353.941h177.887V558.72z"/>
	</g>
</g>
<g>
	<g>
		<path fill="#FFFFFF" d="M454.599,383.394H325.22c-4.818,0-8.721,3.903-8.721,8.72s3.902,8.72,8.721,8.72h129.379
			c4.816,0,8.719-3.903,8.719-8.72S459.416,383.394,454.599,383.394z"/>
	</g>
</g>
<g>
	<g>
		<path fill="#FFFFFF" d="M401.892,428.257H325.22c-4.818,0-8.721,3.903-8.721,8.72c0,4.817,3.902,8.721,8.721,8.721h76.672
			c4.816,0,8.721-3.903,8.721-8.721C410.613,432.16,406.708,428.257,401.892,428.257z"/>
	</g>
</g>
<g>
	<g>
		<path fill="#FFFFFF" d="M510.552,428.257H433.88c-4.816,0-8.721,3.903-8.721,8.72c0,4.817,3.904,8.721,8.721,8.721h76.672
			c4.818,0,8.721-3.903,8.721-8.721C519.273,432.16,515.371,428.257,510.552,428.257z"/>
	</g>
</g>
<g>
	<g>
		<path fill="#FFFFFF" d="M508.857,470.873H325.22c-4.818,0-8.721,3.903-8.721,8.72c0,4.817,3.902,8.72,8.721,8.72h183.637
			c4.816,0,8.719-3.902,8.719-8.72C517.576,474.776,513.673,470.873,508.857,470.873z"/>
	</g>
</g>
<g>
	<g>
		<path fill="#FFFFFF" d="M508.857,514.613H325.22c-4.818,0-8.721,3.903-8.721,8.72c0,4.817,3.902,8.72,8.721,8.72h183.637
			c4.816,0,8.719-3.902,8.719-8.72C517.576,518.517,513.673,514.613,508.857,514.613z"/>
	</g>
</g>
<g>
	<g>
		<path fill="#FFFFFF" d="M510.552,383.394h-19.523c-4.816,0-8.721,3.903-8.721,8.72s3.904,8.72,8.721,8.72h19.523
			c4.818,0,8.721-3.903,8.721-8.72S515.371,383.394,510.552,383.394z"/>
	</g>
</g>
</svg>
