<?xml version="1.0" encoding="utf-8"?>
<!-- Generator: Adobe Illustrator 16.0.0, SVG Export Plug-In . SVG Version: 6.00 Build 0)  -->
<!DOCTYPE svg PUBLIC "-//W3C//DTD SVG 1.1//EN" "http://www.w3.org/Graphics/SVG/1.1/DTD/svg11.dtd">
<svg version="1.1" id="Слой_1" xmlns="http://www.w3.org/2000/svg" xmlns:xlink="http://www.w3.org/1999/xlink" x="0px" y="0px"
	 width="512px" height="512px" viewBox="0 0 512 512" enable-background="new 0 0 512 512" xml:space="preserve">
<path fill="#FFFFFF" d="M36.155,326.162c0.565,4.521,4.409,7.914,8.966,7.914h16.111L42.234,448.074
	c-0.822,4.926,2.507,9.58,7.431,10.402c0.493,0.08,0.995,0.119,1.494,0.119c4.415-0.004,8.178-3.195,8.903-7.551l19.497-116.969
	h63.684l19.494,116.969c0.725,4.355,4.488,7.547,8.9,7.551c0.502,0,1.004-0.039,1.5-0.119c4.92-0.822,8.247-5.477,7.428-10.402
	l-19.001-113.998h14.103c4.993,0,9.038-4.042,9.038-9.037c0-4.99-4.045-9.038-9.038-9.038H53.101L34.006,163.249
	c-0.618-4.949-5.137-8.463-10.089-7.845c-4.952,0.622-8.467,5.134-7.845,10.089L36.155,326.162z"/>
<path fill="#FFFFFF" d="M477.993,163.249l-19.095,152.752H336.335c-4.99,0-9.038,4.048-9.038,9.038c0,4.995,4.048,9.037,9.038,9.037
	h14.103l-18.998,113.998c-0.825,4.926,2.507,9.58,7.428,10.402c0.495,0.08,0.998,0.119,1.497,0.119
	c4.415-0.004,8.178-3.195,8.902-7.551l19.497-116.969h63.681l19.497,116.969c0.725,4.355,4.487,7.547,8.899,7.551
	c0.502,0,1.004-0.039,1.5-0.119c4.921-0.822,8.247-5.477,7.428-10.402l-19.001-113.998h16.111c4.556,0,8.4-3.393,8.965-7.914
	l20.084-160.67c0.621-4.955-2.891-9.467-7.846-10.089C483.131,154.785,478.615,158.3,477.993,163.249z"/>
<path fill="#FFFFFF" d="M393.573,254.746c0-4.99-4.045-9.038-9.038-9.038H116.418c-4.989,0-9.038,4.048-9.038,9.038
	c0,4.996,4.048,9.038,9.038,9.038h127.048c-0.995,1.487-1.528,3.232-1.525,5.021v180.752c0,4.996,4.048,9.039,9.038,9.039
	c4.993,0,9.038-4.043,9.038-9.039V268.805c0.003-1.789-0.53-3.534-1.522-5.021h126.041
	C389.528,263.783,393.573,259.741,393.573,254.746z"/>
<path fill="#FFFFFF" d="M200.77,217.594h100.419c4.992,0,9.037-4.045,9.037-9.038c-0.034-29.222-21.339-54.063-50.209-58.557v-5.711
	c0-4.99-4.045-9.038-9.038-9.038c-4.99,0-9.038,4.048-9.038,9.038V150c-28.87,4.494-50.171,29.335-50.209,58.557
	C191.732,213.549,195.78,217.594,200.77,217.594z M250.979,167.385c19.249,0.025,35.915,13.362,40.167,32.134h-80.334
	C215.063,180.747,231.73,167.41,250.979,167.385z"/>
<path fill="#FFFFFF" d="M168.636,239.683h164.687c4.992,0,9.037-4.042,9.037-9.035c0-4.989-4.045-9.038-9.037-9.038H168.636
	c-4.99,0-9.038,4.048-9.038,9.038C159.598,235.641,163.646,239.683,168.636,239.683z"/>
<path fill="#FFFFFF" d="M241.941,79.016v30.126c0,4.992,4.048,9.038,9.038,9.038c4.993,0,9.038-4.045,9.038-9.038V79.016
	c0-4.989-4.045-9.038-9.038-9.038C245.989,69.979,241.941,74.027,241.941,79.016z"/>
<path fill="#FFFFFF" d="M275.079,111.15v19.08c0,4.992,4.049,9.038,9.037,9.038c4.993,0,9.039-4.045,9.039-9.038v-19.08
	c0-4.99-4.046-9.038-9.039-9.038C279.128,102.113,275.079,106.161,275.079,111.15z"/>
<path fill="#FFFFFF" d="M220.854,102.113c-4.99,0-9.038,4.048-9.038,9.038v19.08c0,4.992,4.048,9.038,9.038,9.038
	c4.992,0,9.038-4.045,9.038-9.038v-19.08C229.891,106.161,225.846,102.113,220.854,102.113z"/>
</svg>
