<?xml version="1.0"?>
<svg xmlns="http://www.w3.org/2000/svg" viewBox="0 0 512 512" width="512px" height="512px"><path d="m378.828125 0h-216.65625c-72.878906 0-132.171875 59.292969-132.171875 132.171875v79.828125h-30v30h150v-30h-30v-79.828125c0-23.253906 18.917969-42.171875 42.171875-42.171875h216.65625c23.402344 0 43.171875 19.3125 43.171875 42.171875v62c0 18.179687-11.589844 34.253906-28.773438 39.976563l-61.859374 20.296874c-54.050782 18.027344-90.367188 68.414063-90.367188 125.382813 0 23.253906-18.917969 42.171875-42.171875 42.171875h-36.65625c-23.253906 0-42.171875-18.917969-42.171875-42.171875v-77.828125h30v-30h-150v30h30v77.828125c0 72.878906 59.292969 132.171875 132.171875 132.171875h36.65625c72.878906 0 132.171875-59.292969 132.171875-132.171875 0-18.179687 11.589844-34.253906 28.773438-39.976563l61.859374-20.296874c54.050782-18.027344 90.367188-68.414063 90.367188-125.382813v-62c0-72.910156-60.15625-132.171875-133.171875-132.171875zm103.171875 194.171875c0 44.039063-28.074219 82.988281-69.789062 96.902344l-61.855469 20.292969c-29.519531 9.835937-49.355469 37.347656-49.355469 68.460937 0 56.335937-45.835938 102.171875-102.171875 102.171875h-36.65625c-56.335937 0-102.171875-45.835938-102.171875-102.171875v-77.828125h30v77.828125c0 39.792969 32.375 72.171875 72.171875 72.171875h36.65625c39.796875 0 72.171875-32.378906 72.171875-72.171875 0-44.039063 28.074219-82.988281 69.789062-96.902344l61.855469-20.292969c29.519531-9.835937 49.355469-37.347656 49.355469-68.460937v-62c0-39.753906-33.234375-72.171875-73.171875-72.171875h-216.65625c-39.796875 0-72.171875 32.378906-72.171875 72.171875v79.828125h-30v-79.828125c0-56.335937 45.835938-102.171875 102.171875-102.171875h216.65625c56.890625 0 103.171875 45.835938 103.171875 102.171875zm0 0" fill="#FFFFFF"/></svg>
