<?xml version="1.0"?>
<svg xmlns="http://www.w3.org/2000/svg" height="512px" viewBox="0 -4 370.46272 370" width="512px"><path d="m369.152344 179.484375-70.296875-146.023437c-3.125-6.503907-10.753907-9.472657-17.511719-6.914063-9.882812 3.535156-18.074219 5.683594-25.855469 6.757813-22.066406 3.023437-45.621093-1.636719-66.304687-13.105469-25.90625-14.898438-55.296875-20.992188-85.042969-17.613281-25.90625 2.917968-49.972656 12.800781-70.195313 28.722656l-1.945312-3.992188c1.84375-2.765625 2.917969-6.09375 2.917969-9.625 0-9.625-7.832031-17.460937-17.457031-17.460937-9.628907 0-17.460938 7.835937-17.460938 17.460937 0 9.316406 7.320312 16.894532 16.488281 17.457032l155.289063 322.867187c1.484375 3.125 4.605468 4.917969 7.832031 4.917969 1.28125 0 2.558594-.257813 3.789063-.871094 4.351562-2.101562 6.144531-7.269531 4.097656-11.625l-71.222656-147.660156c38.914062-32.304688 93.339843-37.324219 137.679687-12.132813.253906.152344.460937.308594.714844.460938 16.027343 9.164062 34.253906 14.695312 52.6875 15.972656 2.761719.207031 5.476562.257813 8.242187.257813 15.71875 0 31.539063-3.019532 46.078125-8.910157 3.585938-1.433593 6.402344-4.351562 7.785157-7.882812 1.433593-3.636719 1.328124-7.679688-.308594-11.058594zm-55.5 10.496094-22.375-47.003907c1.226562.050782 2.457031.050782 3.6875.050782 11.773437 0 23.550781-1.84375 34.761718-5.375l22.121094 45.875c-12.492187 4.558594-25.394531 6.707031-38.195312 6.453125zm-107.113282-32.054688-22.371093-46.898437c18.480469 1.589844 36.8125 7.117187 53.65625 16.792968.359375.207032.664062.359376 1.023437.566407l22.015625 46.128906c-16.945312-9.316406-35.378906-14.898437-54.324219-16.589844zm-100.8125-91.1875c16.949219-5.9375 35.023438-8.292969 52.890626-6.910156l23.859374 50.023437c-17.917968-1.28125-35.890624 1.125-52.839843 7.066407zm74.804688-31.382812s.050781 0 .050781.050781c0 0 .050781.050781.050781.050781 5.734376 3.175781 11.675782 5.886719 17.714844 8.140625l15.308594 32.152344c-17.097656-9.777344-35.683594-15.359375-54.425781-16.894531l-18.070313-37.9375c13.566406 2.457031 26.878906 7.269531 39.371094 14.4375zm35.53125 42.800781c14.285156 7.679688 30.3125 12.339844 46.542969 13.414062 1.023437.054688 2.097656.105469 3.121093.15625l23.910157 50.175782c-17.253907-.820313-34.355469-5.632813-49.96875-14.335938zm41.730469-27.59375c8.292969-1.128906 16.84375-3.277344 26.777343-6.707031l20.070313 41.726562c-12.492187 3.992188-25.394531 5.734375-38.195313 5.273438l-18.789062-39.371094c3.378906-.15625 6.757812-.460937 10.136719-.921875zm-173.464844-26.371094 20.015625 41.933594c-15.101562 5.429688-29.335938 13.671875-41.878906 24.628906l-20.890625-43.316406c12.851562-10.75 27.390625-18.535156 42.753906-23.246094zm3.121094 118.582032c12.441406-10.957032 26.625-19.148438 41.675781-24.578126l21.914062 45.875c-15.308593 4.96875-29.644531 12.546876-42.496093 22.527344zm0 0" fill="#FFFFFF"/></svg>
