<?xml version="1.0" encoding="utf-8"?>
<!-- Generator: Adobe Illustrator 16.0.0, SVG Export Plug-In . SVG Version: 6.00 Build 0)  -->
<!DOCTYPE svg PUBLIC "-//W3C//DTD SVG 1.1//EN" "http://www.w3.org/Graphics/SVG/1.1/DTD/svg11.dtd">
<svg version="1.1" id="Capa_1" xmlns="http://www.w3.org/2000/svg" xmlns:xlink="http://www.w3.org/1999/xlink" x="0px" y="0px"
	 width="595.281px" height="595.275px" viewBox="0 123.308 595.281 595.275" enable-background="new 0 123.308 595.281 595.275"
	 xml:space="preserve">
<g>
	<g>
		<path fill="#FFFFFF" d="M591.841,537.051l-28.379-28.148c-4.563-4.523-11.924-4.492-16.447,0.067s-4.492,11.923,0.068,16.446
			l28.379,28.147c2.266,2.25,5.229,3.373,8.188,3.373c2.992,0,5.982-1.147,8.256-3.44
			C596.431,548.937,596.402,541.573,591.841,537.051z"/>
	</g>
</g>
<g>
	<g>
		<path fill="#FFFFFF" d="M534.546,480.103c-4.543-4.542-11.902-4.542-16.447,0l-0.02,0.02c-4.541,4.541-4.531,11.896,0.012,16.437
			c2.266,2.269,5.242,3.401,8.215,3.401c2.982,0,5.965-1.138,8.238-3.411C539.085,492.008,539.085,484.645,534.546,480.103z"/>
	</g>
</g>
<g>
	<g>
		<path fill="#FFFFFF" d="M435.408,533.723l112.809-112.809c17.086-17.086,17.086-44.888,0-61.974
			c-6.025-6.025-13.383-9.915-21.135-11.69c2.658-5.713,4.066-11.983,4.066-18.473c0-11.706-4.561-22.71-12.836-30.986
			c-6.49-6.492-14.662-10.685-23.533-12.195c4.994-15.215,1.465-32.64-10.613-44.715c-6.639-6.639-14.898-10.685-23.516-12.164
			c1.443-4.382,2.205-9.009,2.205-13.758c0-11.706-4.559-22.71-12.834-30.986c-8.277-8.276-19.281-12.835-30.986-12.835
			c-7.434,0-14.58,1.844-20.93,5.307l-1.121-1.206c-14.582-15.67-35.223-24.657-56.627-24.657h-91.315
			c-6.421,0-11.628,5.208-11.628,11.629v15.25c0,6.103,1.032,12.044,3.006,17.63c-5.26-2.185-10.951-3.332-16.818-3.332
			c-11.706,0-22.71,4.559-30.987,12.834c-12.083,12.083-15.609,29.52-10.604,44.739c-8.626,1.475-16.896,5.524-23.542,12.168
			c-8.276,8.277-12.834,19.281-12.834,30.986c0,4.739,0.759,9.359,2.197,13.732c-8.859,1.515-17.023,5.705-23.509,12.192
			c-13.344,13.344-16.266,33.225-8.766,49.431c-7.942,1.815-15.236,5.814-21.141,11.717c-17.085,17.085-17.085,44.887,0,61.973
			l23.2,23.198L3.405,578.942c-4.541,4.541-4.541,11.904,0,16.446c2.271,2.27,5.247,3.407,8.223,3.407
			c2.975,0,5.952-1.137,8.222-3.407l115.314-115.314c6.528,3.726,13.937,5.718,21.658,5.718c11.705,0,22.709-4.559,30.986-12.836
			c8.992-8.99,13.245-20.95,12.772-32.754c0.589,0.024,1.179,0.042,1.768,0.042c11.22-0.001,22.445-4.272,30.986-12.813
			c8.275-8.277,12.834-19.282,12.834-30.986c0-0.592-0.02-1.18-0.043-1.769c0.583,0.023,1.165,0.042,1.749,0.042
			c11.221,0,22.444-4.271,30.986-12.813c8.276-8.277,12.834-19.282,12.834-30.986c0-0.592-0.02-1.18-0.043-1.769
			c0.583,0.023,1.165,0.042,1.749,0.042c11.222,0,22.444-4.272,30.985-12.814c16.055-16.054,17.021-41.566,2.908-58.763
			l77.193-77.193c3.883-3.886,9.047-6.024,14.539-6.024c5.494,0,10.658,2.138,14.541,6.024c3.885,3.884,6.023,9.046,6.023,14.54
			c0,5.492-2.139,10.657-6.023,14.54l-11.381,11.381l-41.297,41.295c-4.541,4.541-4.541,11.904,0,16.447
			c2.271,2.27,5.248,3.407,8.223,3.407c2.977,0,5.951-1.136,8.223-3.407l41.295-41.295c8.018-8.018,21.063-8.019,29.082-0.001
			c8.018,8.019,8.018,21.064,0,29.083l-11.383,11.382l-29.912,29.913c-4.541,4.542-4.541,11.904,0,16.447
			c2.27,2.27,5.246,3.407,8.223,3.407c2.975,0,5.951-1.136,8.221-3.407l29.914-29.913c3.885-3.886,9.047-6.024,14.539-6.024
			c5.494,0,10.658,2.138,14.543,6.024c3.883,3.884,6.021,9.046,6.021,14.54c0,5.492-2.139,10.657-6.023,14.54l-15.623,15.623
			l-14.289,14.291c-4.543,4.541-4.543,11.904,0,16.447c2.27,2.27,5.246,3.407,8.221,3.407c2.977,0,5.953-1.136,8.223-3.407
			l14.301-14.301c8.02-8.005,21.057-8.003,29.072,0.011c8.018,8.018,8.018,21.064,0,29.083l-112.811,112.81
			c-28.328,28.328-65.975,44.727-106.01,46.181c-2.941,0.106-5.736,1.326-7.816,3.414L200.912,671.476
			c-4.533,4.55-4.521,11.912,0.03,16.445c2.269,2.261,5.238,3.392,8.207,3.392c2.982,0,5.967-1.141,8.238-3.422l76.65-76.933
			c19.47,12.49,42.367,18.43,65.65,16.89l59.99,59.992c2.271,2.27,5.246,3.406,8.223,3.406s5.951-1.136,8.223-3.406
			c4.541-4.541,4.541-11.904,0-16.447l-63.783-63.79c-2.416-2.413-5.771-3.647-9.174-3.368l-3.688,0.303
			c-17.018,1.395-33.84-2.333-48.525-10.563l7.473-7.5C362.626,583.747,404.007,565.124,435.408,533.723z M171.364,456.512
			c-3.884,3.886-9.049,6.023-14.54,6.023c-5.494,0-10.657-2.138-14.54-6.023l-31.422-31.421c-8.018-8.018-8.018-21.063,0-29.083
			c3.884-3.885,9.049-6.023,14.541-6.023c5.493,0,10.657,2.138,14.541,6.023l31.422,31.421
			C179.382,435.447,179.382,448.493,171.364,456.512z M216.893,410.983c-8.019,8.018-21.067,8.018-29.083,0l-31.422-31.422
			l-15.624-15.624c-8.018-8.018-8.018-21.063,0-29.082c3.884-3.885,9.049-6.023,14.54-6.023c5.494,0,10.657,2.138,14.54,6.023
			l47.045,47.045c0,0,0,0,0.001,0c3.886,3.885,6.024,9.049,6.024,14.541C222.914,401.935,220.776,407.099,216.893,410.983z
			 M262.418,365.456c-8.019,8.017-21.066,8.018-29.083,0l-58.427-58.427c-3.884-3.885-6.022-9.047-6.022-14.541
			c0-5.492,2.138-10.657,6.024-14.54c4.009-4.009,9.275-6.013,14.54-6.013c5.262,0,10.523,2.002,14.531,6.004l26.63,26.629
			l31.806,31.806h0.001c3.883,3.884,6.021,9.047,6.021,14.54C268.441,356.408,266.303,361.573,262.418,365.456z M307.947,319.929
			c-8.018,8.018-21.065,8.018-29.083,0l-58.427-58.427c-0.006-0.006-0.013-0.012-0.02-0.019l-11.362-11.363
			c-8.018-8.019-8.018-21.064,0-29.083c4.009-4.01,9.275-6.015,14.541-6.015c5.266,0,10.533,2.004,14.541,6.015l69.806,69.807
			c3.887,3.885,6.025,9.048,6.025,14.541C313.968,310.88,311.832,316.045,307.947,319.929z M311.003,261.015l-31.94-31.94
			c3.622,0.773,7.346,1.184,11.136,1.183c0.085,0,0.171,0,0.257,0l31.913-0.15c6.422-0.03,11.604-5.261,11.574-11.684
			c-0.029-6.404-5.23-11.574-11.627-11.574c-0.02,0-0.037,0-0.057,0l-31.913,0.15c-0.049,0-0.095,0-0.144,0
			c-7.863,0-15.259-3.052-20.835-8.602c-5.611-5.585-8.7-13.02-8.7-20.937v-3.621h79.686c14.971,0,29.404,6.284,39.604,17.243
			l0.473,0.508L311.003,261.015z"/>
	</g>
</g>
</svg>
