<?xml version="1.0" encoding="utf-8"?>
<!-- Generator: Adobe Illustrator 16.0.0, SVG Export Plug-In . SVG Version: 6.00 Build 0)  -->
<!DOCTYPE svg PUBLIC "-//W3C//DTD SVG 1.1//EN" "http://www.w3.org/Graphics/SVG/1.1/DTD/svg11.dtd">
<svg version="1.1" id="Capa_1" xmlns="http://www.w3.org/2000/svg" xmlns:xlink="http://www.w3.org/1999/xlink" x="0px" y="0px"
	 width="595.281px" height="595.275px" viewBox="0 123.308 595.281 595.275" enable-background="new 0 123.308 595.281 595.275"
	 xml:space="preserve">
<g>
	<g>
		<path fill="#FFFFFF" d="M37.927,466.811c0,18.146,14.764,32.91,32.91,32.91s32.91-14.764,32.91-32.91
			c0-18.146-14.764-32.909-32.91-32.909S37.927,448.664,37.927,466.811z M55.367,466.811c0-8.529,6.939-15.469,15.471-15.469
			c8.529,0,15.471,6.939,15.471,15.469c0,8.53-6.941,15.471-15.471,15.471C62.306,482.281,55.369,475.341,55.367,466.811z"/>
	</g>
</g>
<g>
	<g>
		<path fill="#FFFFFF" d="M411.603,466.811c0,18.146,14.764,32.91,32.91,32.91s32.91-14.764,32.91-32.91
			c0-18.146-14.764-32.909-32.91-32.909S411.603,448.664,411.603,466.811z M429.042,466.811c0-8.529,6.939-15.469,15.471-15.469
			c8.529,0,15.47,6.939,15.47,15.469c0,8.53-6.94,15.471-15.47,15.471C435.982,482.281,429.042,475.341,429.042,466.811z"/>
	</g>
</g>
<g>
	<g>
		<path fill="#FFFFFF" d="M168.335,471.68c0,4.816,3.904,8.72,8.721,8.72h34.51c4.816,0,8.721-3.903,8.721-8.72v-8.006
			c0-4.815-3.904-8.72-8.721-8.72c-4.576,0-8.328,3.523-8.691,8.006h-25.818C172.24,462.96,168.335,466.864,168.335,471.68z"/>
	</g>
</g>
<g>
	<g>
		<path fill="#FFFFFF" d="M3.109,417.141c1.635,1.375,3.627,2.046,5.607,2.046c2.486,0,4.955-1.057,6.678-3.108l2.756-3.276h3.791
			c0.514,5.221,3.455,9.729,7.67,12.407c-10.721,10.625-17.373,25.348-17.373,41.6c0,32.313,26.287,58.602,58.6,58.602
			c27.082,0,49.922-18.47,56.611-43.472h16.273l4.061,16.45c0.961,3.894,4.455,6.631,8.465,6.631h84.762
			c4.816,0,8.721-3.904,8.721-8.72c0-4.816-3.904-8.721-8.721-8.721h-77.932l-11.684-47.34l201.289,8.373v38.967h-71.936
			c-4.816,0-8.721,3.904-8.721,8.721c0,4.815,3.904,8.72,8.721,8.72h80.656c4.815,0,8.72-3.904,8.72-8.72v-1.631h22.847
			c9.926,18.292,29.309,30.741,51.543,30.741c17.49,0,33.205-7.712,43.951-19.903h98.096c4.816,0,8.721-3.904,8.721-8.721v-16.435
			c0-23.201-15.211-42.909-36.179-49.701c-19.386-28.63-48.389-53.691-86.264-74.491c-4.224-2.318-9.522-0.775-11.841,3.445
			c-2.318,4.222-0.775,9.522,3.445,11.841c29.795,16.362,53.599,35.381,71.021,56.667h-9.615
			c-20.32-23.43-56.121-50.233-114.246-51.986l-12.4-32.911c7.582,2.578,17.253,6.04,28.058,10.502
			c4.45,1.842,9.55-0.278,11.388-4.729c1.84-4.451-0.277-9.55-4.729-11.388c-16.349-6.754-30.075-11.258-38.278-13.95
			c-2.66-0.873-5.398-1.772-6.543-2.212c-2.579-1.616-5.906-1.815-8.737-0.305c-3.864,2.062-5.6,6.669-4.056,10.768l21.07,55.928
			c1.279,3.397,4.53,5.646,8.16,5.646c45.484,0,76.148,16.745,95.938,34.636h-13.01c-10.746-12.191-26.461-19.903-43.952-19.903
			c-10.587,0-20.519,2.836-29.099,7.768l-51.703-44.962l4.275-12.358c1.6-4.622,1.305-9.591-0.833-13.99s-5.86-7.703-10.483-9.302
			c-4.619-1.6-9.589-1.304-13.99,0.833c-4.398,2.137-7.703,5.86-9.302,10.482l-11.813,34.136
			c-3.304,9.542,1.772,19.992,11.315,23.294l0.002,0.001c1.975,0.684,3.988,1.008,5.971,1.008c7.59,0,14.703-4.759,17.322-12.324
			l1.389-4.015l13.471,11.713l-14.975,30.805l-44.398-1.847c-0.182-0.062-0.361-0.126-0.548-0.176l-107.454-28.56
			c-5.031-1.338-9.223-4.812-11.498-9.535c-2.09-4.339-7.303-6.161-11.641-4.072c-4.338,2.09-6.162,7.302-4.07,11.641
			c4.486,9.314,12.77,16.175,22.729,18.821l32.125,8.539l-70.834-2.946v-83.011c0-3.438,2.795-6.234,6.234-6.234
			c3.438,0,6.234,2.796,6.234,6.234v15.258c0,4.815,3.904,8.72,8.721,8.72c4.814,0,8.719-3.904,8.719-8.72v-15.258
			c0-13.054-10.621-23.674-23.674-23.674c-13.055,0-23.676,10.62-23.676,23.674v31.629h-11.889
			c-3.598-8.872-12.467-14.984-22.564-14.55c-9.396,0.402-17.25,6.357-20.578,14.55h-6.805c-4.814,0-8.719,3.904-8.719,8.72v2.073
			H38.505c-7.85,0-14.432,5.467-16.18,12.79h-8.238c-2.574,0-5.016,1.138-6.674,3.107l-5.367,6.384
			C-1.053,408.542-0.579,414.042,3.109,417.141z M351.507,352.955l-11.813,34.137c-0.158,0.454-0.652,0.697-1.11,0.539
			c-0.454-0.157-0.695-0.655-0.538-1.109l11.813-34.135c0.078-0.227,0.227-0.396,0.443-0.5c0.123-0.06,0.248-0.09,0.376-0.09
			c0.095,0,0.192,0.017,0.288,0.05c0.227,0.078,0.396,0.227,0.5,0.443C351.572,352.504,351.585,352.729,351.507,352.955z
			 M503.113,466.811c0-7.497-1.43-14.661-4.008-21.257h43.936c19.189,0,34.8,15.611,34.8,34.8v7.715h-78.735
			C501.683,481.473,503.113,474.308,503.113,466.811z M403.351,466.811c0-22.696,18.465-41.16,41.162-41.16
			c22.695,0,41.161,18.464,41.161,41.16s-18.466,41.162-41.161,41.162C421.816,507.973,403.351,489.507,403.351,466.811z
			 M370.123,466.92h15.791c0.008,3.52,0.341,6.962,0.944,10.312h-16.735V466.92z M370.123,449.479v-7.222l14.54-29.91l16.877,14.676
			c-5.883,6.348-10.386,13.991-13.011,22.455H370.123L370.123,449.479z M72.472,408.252c-0.545-0.015-1.086-0.042-1.635-0.042
			c-5.48,0-10.779,0.772-15.814,2.186c-0.172-0.009-0.344-0.026-0.518-0.026H39.296v-10.354h33.176V408.252z M100.847,416.502
			c-3.434-2.056-7.096-3.762-10.934-5.086V392.97c1.082,1.704,2.375,3.287,3.902,4.689c2.094,1.922,4.475,3.408,7.031,4.441V416.502
			z M118.287,432.482V402.07c5.855-2.374,10.494-7.04,12.854-12.85h11.887v33.217l-2.521-0.104c-2.748-0.115-5.377,1.07-7.115,3.195
			c-1.736,2.125-2.371,4.943-1.715,7.606l7.742,31.364h-10.039C128.914,452.571,124.869,441.555,118.287,432.482L118.287,432.482z
			 M109.818,386.347c-1.564,0.058-3.057-0.479-4.207-1.536c-1.152-1.057-1.822-2.5-1.889-4.062
			c-0.137-3.223,2.373-5.956,5.596-6.094c0.084-0.004,0.17-0.005,0.254-0.005c3.111,0,5.707,2.462,5.844,5.602
			C115.552,383.475,113.041,386.209,109.818,386.347z M29.677,466.811c0-22.696,18.463-41.16,41.16-41.16
			c22.695,0,41.162,18.464,41.162,41.16s-18.467,41.162-41.162,41.162C48.14,507.973,29.677,489.507,29.677,466.811z"/>
	</g>
</g>
<g>
	<g>
		<path fill="#FFFFFF" d="M547.03,474.005c0,4.816,3.904,8.721,8.72,8.721h0.17c4.816,0,8.721-3.904,8.721-8.721
			c0-4.815-3.904-8.72-8.721-8.72h-0.17C550.934,465.285,547.03,469.189,547.03,474.005z"/>
	</g>
</g>
<g>
	<g>
		<path fill="#FFFFFF" d="M329.429,474.005c0,4.816,3.904,8.721,8.721,8.721h0.17c4.814,0,8.719-3.904,8.719-8.721
			c0-4.815-3.904-8.72-8.719-8.72h-0.17C333.333,465.285,329.429,469.189,329.429,474.005z"/>
	</g>
</g>
<g>
	<g>
		<path fill="#FFFFFF" d="M435.878,466.811c0,4.815,3.903,8.72,8.719,8.72h0.17c4.816,0,8.721-3.904,8.721-8.72
			s-3.904-8.72-8.721-8.72h-0.17C439.782,458.091,435.878,461.995,435.878,466.811z"/>
	</g>
</g>
<g>
	<g>
		<path fill="#FFFFFF" d="M61.873,466.811c0,4.815,3.904,8.72,8.719,8.72h0.17c4.816,0,8.721-3.904,8.721-8.72
			s-3.904-8.72-8.721-8.72h-0.17C65.777,458.091,61.873,461.995,61.873,466.811z"/>
	</g>
</g>
</svg>
