<?xml version="1.0" encoding="utf-8"?>
<!-- Generator: Adobe Illustrator 16.0.0, SVG Export Plug-In . SVG Version: 6.00 Build 0)  -->
<!DOCTYPE svg PUBLIC "-//W3C//DTD SVG 1.1//EN" "http://www.w3.org/Graphics/SVG/1.1/DTD/svg11.dtd">
<svg version="1.1" id="Layer_1" xmlns="http://www.w3.org/2000/svg" xmlns:xlink="http://www.w3.org/1999/xlink" x="0px" y="0px"
	 width="174.533px" height="30.939px" viewBox="0 0 174.533 30.939" enable-background="new 0 0 174.533 30.939"
	 xml:space="preserve">
<g>
	<path fill="#FBFBFB" d="M35.997,8.779c-0.067,0.285-0.419,1.896-0.474,2.031c-0.162,0.392-0.343,0.506-0.4,0.545
		c-0.227,0.149-0.55,0.24-0.953,0.284c-0.63,0.063-15.471,0.239-16.393,0.251l-4.035,0.041l0.221-1.734H4.229l-0.005,0.041H4.213
		L3.03,19.335h36.248c0.852-0.291,1.614-0.669,2.286-1.122c1.293-0.873,2.289-2.123,2.977-3.707c0.513-1.18,0.898-2.592,1.175-4.309
		L35.997,8.779z"/>
	<polygon fill="#FBFBFB" points="92.063,10.197 90.883,19.335 81.319,19.335 82.362,10.197 	"/>
	<path fill="#FBFBFB" d="M59.29,14.283c-0.274,2.135-0.323,3.834-0.134,5.052H49.144c-0.052-1.597,0.065-3.396,0.336-5.441
		c0.176-1.321,0.392-2.55,0.655-3.696h9.995C59.779,11.311,59.504,12.685,59.29,14.283z"/>
	<path fill="#FBFBFB" d="M119.192,10.197l-0.762,5.849c-0.172,1.281-0.267,2.387-0.278,3.289h-9.777
		c0.051-1.122,0.163-2.343,0.34-3.643l0.732-5.495H119.192z"/>
	<path fill="#FBFBFB" d="M138.529,10.197l-0.75,5.709c-0.172,1.225-0.359,2.369-0.588,3.429h-9.803
		c0.033-0.1,0.063-0.208,0.096-0.322c0.252-0.964,0.479-2.163,0.674-3.567l0.684-5.248H138.529z"/>
	<g>
		<path fill="#FBFBFB" d="M48.018,7.013c-0.287-1.692-0.891-3.364-2.046-4.323c-1.073-0.887-2.523-1.472-4.315-1.743
			c-1.559-0.229-3.521-0.336-5.833-0.317L8.124,0.627L6.621,11.186l9.414,3.582l0.533-5.035l18.598-0.189
			c0.91-0.008,1.691,0.01,2.31,0.065c0.413,0.028,0.581,0.118,0.634,0.149c0.011,0.024,0.043,0.101,0.066,0.258
			c0.035,0.176,0.064,0.536,0.014,1.17h9.918C48.246,9.535,48.222,8.164,48.018,7.013z"/>
		<polygon fill="#FBFBFB" points="95.879,0.664 94.475,11.482 84.757,11.482 86.147,0.757 		"/>
		<path fill="#FBFBFB" d="M80.799,1.57l-1.174,9.018l-1.488-0.482c-0.828-0.266-1.991-0.601-3.47-0.999
			c-1.349-0.364-2.913-0.541-4.656-0.521c-1.182,0.012-2.303,0.102-3.327,0.289c-0.832,0.148-1.554,0.478-2.208,1.021
			c-0.394,0.324-0.757,0.75-1.106,1.289H52.896c0.278-0.859,0.596-1.656,0.935-2.376c1.106-2.303,2.509-4.134,4.179-5.442
			c1.672-1.304,3.626-2.207,5.801-2.672c2.041-0.43,4.302-0.664,6.73-0.693C74.801-0.035,78.174,0.479,80.799,1.57z"/>
		<polygon fill="#FBFBFB" points="122.97,0.627 121.598,11.186 111.857,11.186 113.251,0.627 		"/>
		<polygon fill="#FBFBFB" points="142.339,0.627 140.939,11.186 131.248,11.186 132.617,0.627 		"/>
		<path fill="#FBFBFB" d="M174.252,5.178c-0.354-1.445-1.037-2.34-2.232-3.134c-1.063-0.696-2.582-1.056-4.352-1.282
			c-1.549-0.202-3.496-0.287-5.797-0.266l-14.478,0.145l-1.393,10.545h8.812l0.381-2.84l6.236-0.066c0.93-0.012,1.717,0,2.348,0.045
			c0.436,0.027,0.695,0.083,0.842,0.127c0.004,0.114,0,0.296-0.031,0.561c-0.156,1.148-0.318,1.811-0.443,2.174h9.924
			c0.131-0.58,0.238-1.219,0.326-1.926C174.627,7.421,174.557,6.402,174.252,5.178z"/>
	</g>
	<polygon fill="#FBFBFB" points="10.938,21.227 1.189,21.227 1.045,22.325 1.068,22.325 0,29.801 9.77,29.801 10.834,22.225 
		10.809,22.225 	"/>
	<polygon fill="#FBFBFB" points="104.381,21.291 103.324,29.801 78.53,29.801 79.488,21.471 89.01,21.443 	"/>
	<path fill="#FBFBFB" d="M74.074,21.594H74.1l-1.011,7.726c-1.096,0.374-2.3,0.691-3.61,0.954c-2.07,0.416-4.285,0.646-6.584,0.663
		c-2.438,0.026-4.646-0.165-6.572-0.561c-2.118-0.444-3.921-1.344-5.347-2.688c-1.451-1.358-2.442-3.265-2.966-5.657
		c-0.015-0.06-0.02-0.121-0.035-0.178h-0.022c-0.043-0.204-0.079-0.41-0.112-0.627h10.726c0.021,0.026,0.043,0.055,0.067,0.076
		c0.177,0.17,0.372,0.316,0.581,0.436h0.026c0.325,0.197,0.713,0.324,1.143,0.389c0.961,0.168,2.044,0.245,3.23,0.232
		c0.844-0.006,1.72-0.084,2.584-0.216c0.902-0.147,1.761-0.309,2.548-0.501h-0.018c0.009,0,0.013,0,0.018-0.005
		c0.57-0.126,1.101-0.263,1.593-0.411h3.781L74.074,21.594z"/>
	<path fill="#FBFBFB" d="M135.103,21.227c-0.053,0.166-0.1,0.322-0.145,0.481c-0.6,1.956-1.541,4.255-2.799,5.518
		c-1.26,1.267-2.908,2.216-4.902,2.813c-1.876,0.566-4.275,0.87-7.126,0.897c-2.905,0.032-5.197-0.222-7.002-0.759
		c-1.975-0.596-3.502-1.575-4.524-2.922c-1.002-1.314-1.577-3.68-1.717-5.701c0-0.091-0.006-0.188-0.014-0.289h-0.026v-0.039h10.789
		c0.077,0.039,0.156,0.07,0.247,0.102c0.441,0.154,1.292,0.334,2.866,0.314c1.25-0.012,2.251-0.143,2.978-0.383
		c0.026-0.014,0.057-0.02,0.083-0.033H135.103z"/>
	<path fill="#FBFBFB" d="M140.595,21.227l-1.084,9.008l15.167-0.152c2.301-0.019,4.281-0.157,5.891-0.404
		c1.746-0.27,3.232-0.752,4.398-1.439c1.275-0.746,2.27-1.793,2.947-3.119c0.457-0.896,0.809-2.653,1.055-3.893H140.595z"/>
	<path fill="#FBFBFB" d="M170.022,14.454c-0.285-0.536-0.629-1.019-1.047-1.433c0.537-0.443,1.018-0.951,1.426-1.535
		c0.266-0.383,0.512-0.818,0.732-1.289h-27.536l-1.186,9.138h8.807l0.252-2.002l6.979-0.069c0.83-0.006,1.539,0.008,2.104,0.044
		c0.229,0.012,0.342,0.05,0.393,0.075c0.016,0.047,0.064,0.151,0.088,0.363c0.039,0.22,0.068,0.689-0.023,1.589h9.783
		c0.057-0.834,0.051-1.565-0.02-2.227C170.667,16.09,170.407,15.193,170.022,14.454z"/>
</g>
<rect x="-30.005" y="-28.773" fill="none" width="237" height="88"/>
</svg>
