<?xml version="1.0" encoding="utf-8"?>
<!-- Generator: Adobe Illustrator 16.0.0, SVG Export Plug-In . SVG Version: 6.00 Build 0)  -->
<!DOCTYPE svg PUBLIC "-//W3C//DTD SVG 1.1//EN" "http://www.w3.org/Graphics/SVG/1.1/DTD/svg11.dtd">
<svg version="1.1" id="Capa_1" xmlns="http://www.w3.org/2000/svg" xmlns:xlink="http://www.w3.org/1999/xlink" x="0px" y="0px"
	 width="595.281px" height="841.891px" viewBox="0 0 595.281 841.891" enable-background="new 0 0 595.281 841.891"
	 xml:space="preserve">
<path fill="#C0D500" d="M297.641,718.585c164.119,0,297.64-133.521,297.64-297.641c0-164.118-133.521-297.64-297.64-297.64
	C133.521,123.305,0,256.826,0,420.944C0,585.063,133.521,718.585,297.641,718.585z M143.234,412.75l218.27-148.82
	c1.677-1.142,3.631-1.727,5.585-1.727c1.588,0,3.186,0.377,4.634,1.151c3.254,1.716,5.288,5.089,5.288,8.77v297.641
	c0,3.681-2.034,7.054-5.288,8.771c-3.254,1.727-7.184,1.488-10.229-0.576L143.225,429.14c-2.699-1.846-4.326-4.911-4.326-8.195
	S140.525,414.595,143.234,412.75z"/>
</svg>
